<svg xmlns="http://www.w3.org/2000/svg" viewBox="0 0 512 512" width="512" height="512">
  <defs>
    <linearGradient id="bg" x1="0%" y1="0%" x2="100%" y2="100%">
      <stop offset="0%" stop-color="#16a34a"/>
      <stop offset="100%" stop-color="#15803d"/>
    </linearGradient>
  </defs>
  <rect width="512" height="512" rx="96" fill="url(#bg)"/>
  <g transform="translate(96, 96)" stroke="white" stroke-width="20" stroke-linecap="round" stroke-linejoin="round" fill="none">
    <path d="M160 80a40 40 0 0 0-40 40c0 20.4-2 50.2-5.2 80"/>
    <path d="M200 142.4c0 47.6 0 127.6-20 177.6"/>
    <path d="M265.8 340.4c2.4-12 8.6-46 10-60.4"/>
    <path d="M40 160a200 200 0 0 1 360-120"/>
    <path d="M40 240h0.2"/>
    <path d="M396 240c4-40 2.62-107.08 0-120"/>
    <path d="M100 350c10-30 20-90 20-150a120 120 0 0 1 6.8-40"/>
    <path d="M173 380c4.2-13.2 9-26.4 11.4-40"/>
    <path d="M180 96a120 120 0 0 1 180 104v40"/>
  </g>
</svg>
